<?xml version="1.0" encoding="utf-8" standalone="no"?>
<!DOCTYPE svg PUBLIC "-//W3C//DTD SVG 1.1//EN"
  "http://www.w3.org/Graphics/SVG/1.1/DTD/svg11.dtd">
<!-- Created with matplotlib (https://matplotlib.org/) -->
<svg height="574.678125pt" version="1.1" viewBox="0 0 1710.142188 574.678125" width="1710.142188pt" xmlns="http://www.w3.org/2000/svg" xmlns:xlink="http://www.w3.org/1999/xlink">
 <defs>
  <style type="text/css">
*{stroke-linecap:butt;stroke-linejoin:round;}
  </style>
 </defs>
 <g id="figure_1">
  <g id="patch_1">
   <path d="M 0 574.678125 
L 1710.142188 574.678125 
L 1710.142188 0 
L 0 0 
z
" style="fill:#ffffff;"/>
  </g>
  <g id="axes_1">
   <g id="patch_2">
    <path clip-path="url(#p8179c875e0)" d="M 296.373102 334.011502 
L 246.362646 334.011502 
L 238.861077 323.509306 
L 238.861077 309.506378 
L 301.374148 196.982852 
L 308.875716 186.480656 
L 371.388786 173.978042 
L 421.399242 173.978042 
L 436.402379 180.229349 
L 436.402379 327.760195 
L 421.399242 334.011502 
z
" style="fill:#34d274;stroke:#34d274;stroke-linejoin:miter;"/>
   </g>
   <g id="patch_3">
    <path clip-path="url(#p8179c875e0)" d="M 133.839119 171.477519 
L 126.337551 160.975323 
L 126.337551 109.464554 
L 133.839119 98.962358 
L 483.912313 98.962358 
L 498.91545 105.213665 
L 498.91545 165.226212 
L 483.912313 171.477519 
z
" style="fill:#34d274;stroke:#34d274;stroke-linejoin:miter;"/>
   </g>
   <g id="patch_4">
    <path clip-path="url(#p8179c875e0)" d="M 108.833891 459.037642 
L 58.823435 459.037642 
L 51.321867 448.535446 
L 51.321867 121.967168 
L 58.823435 111.464972 
L 171.346961 111.464972 
L 186.350098 117.716279 
L 186.350098 452.786335 
L 171.346961 459.037642 
z
" style="fill:#34d274;stroke:#34d274;stroke-linejoin:miter;"/>
   </g>
   <g id="patch_5">
    <path clip-path="url(#p8179c875e0)" d="M 233.860032 396.524572 
L 183.849576 396.524572 
L 176.348007 386.022376 
L 163.845393 323.509306 
L 163.845393 309.506378 
L 171.346961 299.004182 
L 221.357418 299.004182 
L 236.360555 305.255489 
L 286.371011 330.260718 
L 286.371011 352.765423 
L 248.863169 390.273265 
z
" style="fill:#34d274;stroke:#34d274;stroke-linejoin:miter;"/>
   </g>
   <g id="patch_6">
    <path clip-path="url(#p8179c875e0)" d="M 271.367874 316.507842 
L 396.394014 316.507842 
L 396.394014 191.481702 
L 333.880944 203.984316 
L 371.388786 228.989544 
z
" style="fill:#f35c42;stroke:#f35c42;stroke-linejoin:miter;"/>
   </g>
   <g id="patch_7">
    <path clip-path="url(#p8179c875e0)" d="M 158.844347 153.97386 
L 458.907085 153.97386 
L 458.907085 116.466017 
L 158.844347 116.466017 
z
" style="fill:#f35c42;stroke:#f35c42;stroke-linejoin:miter;"/>
   </g>
   <g id="patch_8">
    <path clip-path="url(#p8179c875e0)" d="M 146.341733 441.533983 
L 146.341733 128.968631 
L 83.828663 128.968631 
L 83.828663 441.533983 
z
" style="fill:#f35c42;stroke:#f35c42;stroke-linejoin:miter;"/>
   </g>
   <g id="patch_9">
    <path clip-path="url(#p8179c875e0)" d="M 208.854804 379.020912 
L 196.35219 316.507842 
L 246.362646 341.51307 
z
" style="fill:#f35c42;stroke:#f35c42;stroke-linejoin:miter;"/>
   </g>
   <g id="patch_10">
    <path clip-path="url(#p8179c875e0)" d="M 113.834937 434.532519 
L 113.834937 448.535446 
L 121.336505 459.037642 
L 171.346961 459.037642 
L 186.350098 452.786335 
L 186.350098 430.28163 
L 171.346961 424.030323 
L 121.336505 424.030323 
z
" style="fill:#333333;stroke:#333333;stroke-linejoin:miter;"/>
   </g>
  </g>
  <g id="axes_2">
   <g id="patch_11">
    <path clip-path="url(#peb86ba16f6)" d="M 848.705203 345.300099 
L 836.942096 339.948681 
L 829.931418 327.80583 
L 831.178508 314.942972 
L 893.773848 202.271359 
L 937.141172 177.233222 
L 999.736513 164.714154 
L 1015.876477 162.623629 
L 1027.143638 182.138925 
L 1027.143638 307.329606 
L 1017.263208 320.261962 
L 973.895884 345.300099 
z
" style="fill:#34d274;stroke:#34d274;stroke-linejoin:miter;"/>
   </g>
   <g id="patch_12">
    <path clip-path="url(#peb86ba16f6)" d="M 736.03359 182.552213 
L 724.270483 177.200795 
L 717.259805 165.057945 
L 717.259805 127.50074 
L 718.506895 114.637882 
L 761.874219 89.599746 
L 778.014183 87.50922 
L 1078.471818 87.50922 
L 1089.738979 107.024516 
L 1089.738979 144.581721 
L 1079.858549 157.514077 
L 1036.491225 182.552213 
z
" style="fill:#34d274;stroke:#34d274;stroke-linejoin:miter;"/>
   </g>
   <g id="patch_13">
    <path clip-path="url(#peb86ba16f6)" d="M 660.919181 470.49078 
L 649.156074 465.139362 
L 642.145396 452.996511 
L 642.145396 140.019809 
L 643.392486 127.15695 
L 686.75981 102.118814 
L 702.899774 100.028288 
L 765.495115 100.028288 
L 776.762276 119.543584 
L 776.762276 432.520287 
L 766.881846 445.452643 
L 723.514522 470.49078 
z
" style="fill:#34d274;stroke:#34d274;stroke-linejoin:miter;"/>
   </g>
   <g id="patch_14">
    <path clip-path="url(#peb86ba16f6)" d="M 786.109863 407.895439 
L 774.346755 402.544021 
L 767.336077 390.401171 
L 754.817009 327.80583 
L 756.064099 314.942972 
L 799.431423 289.904835 
L 815.571387 287.81431 
L 865.64766 312.852446 
L 876.914821 332.367742 
L 867.034391 345.300099 
L 829.477187 382.857303 
z
" style="fill:#34d274;stroke:#34d274;stroke-linejoin:miter;"/>
   </g>
   <g id="patch_15">
    <path clip-path="url(#peb86ba16f6)" d="M 861.625517 317.602467 
L 986.816199 317.602467 
L 986.816199 192.411786 
L 924.220858 204.930854 
L 961.778062 229.96899 
z
" style="fill:#f35c42;stroke:#f35c42;stroke-linejoin:miter;"/>
   </g>
   <g id="patch_16">
    <path clip-path="url(#peb86ba16f6)" d="M 748.953904 154.854582 
L 1049.411539 154.854582 
L 1049.411539 117.297377 
L 748.953904 117.297377 
z
" style="fill:#f35c42;stroke:#f35c42;stroke-linejoin:miter;"/>
   </g>
   <g id="patch_17">
    <path clip-path="url(#peb86ba16f6)" d="M 736.434836 442.793148 
L 736.434836 129.816445 
L 673.839496 129.816445 
L 673.839496 442.793148 
z
" style="fill:#f35c42;stroke:#f35c42;stroke-linejoin:miter;"/>
   </g>
   <g id="patch_18">
    <path clip-path="url(#peb86ba16f6)" d="M 799.030177 380.197808 
L 786.511109 317.602467 
L 836.587381 342.640603 
z
" style="fill:#f35c42;stroke:#f35c42;stroke-linejoin:miter;"/>
   </g>
   <g id="patch_19">
    <path clip-path="url(#peb86ba16f6)" d="M 704.740737 452.996511 
L 711.751415 465.139362 
L 723.514522 470.49078 
L 766.881846 445.452643 
L 776.762276 432.520287 
L 765.495115 413.004991 
L 749.355151 415.095517 
L 705.987827 440.133653 
z
" style="fill:#333333;stroke:#333333;stroke-linejoin:miter;"/>
   </g>
  </g>
  <g id="axes_3">
   <g id="patch_20">
    <path clip-path="url(#pf91e81d177)" d="M 1449.123875 359.51226 
L 1437.661113 351.324573 
L 1437.661113 296.73999 
L 1444.484186 280.364615 
L 1512.714915 157.549302 
L 1580.945644 143.903156 
L 1605.508706 143.903156 
L 1612.331779 160.278531 
L 1612.331779 351.324573 
L 1600.869017 359.51226 
z
" style="fill:#34d274;stroke:#34d274;stroke-linejoin:miter;"/>
   </g>
   <g id="patch_21">
    <path clip-path="url(#pf91e81d177)" d="M 1326.308563 182.112365 
L 1314.8458 173.924677 
L 1314.8458 132.98624 
L 1314.8458 78.401656 
L 1321.668873 62.026281 
L 1673.739435 62.026281 
L 1680.562508 78.401656 
L 1680.562508 173.924677 
L 1669.099746 182.112365 
z
" style="fill:#34d274;stroke:#34d274;stroke-linejoin:miter;"/>
   </g>
   <g id="patch_22">
    <path clip-path="url(#pf91e81d177)" d="M 1244.431688 495.973719 
L 1232.968925 487.786031 
L 1232.968925 146.632386 
L 1232.968925 92.047802 
L 1239.791998 75.672427 
L 1332.58579 75.672427 
L 1339.408863 92.047802 
L 1339.408863 433.201448 
L 1339.408863 487.786031 
L 1327.9461 495.973719 
z
" style="fill:#34d274;stroke:#34d274;stroke-linejoin:miter;"/>
   </g>
   <g id="patch_23">
    <path clip-path="url(#pf91e81d177)" d="M 1380.893146 427.742989 
L 1369.430384 419.555302 
L 1355.784238 351.324573 
L 1355.784238 296.73999 
L 1362.607311 280.364615 
L 1387.170373 280.364615 
L 1441.754957 307.656906 
L 1448.578029 324.032281 
L 1448.578029 378.616864 
L 1407.639592 419.555302 
L 1396.176829 427.742989 
z
" style="fill:#34d274;stroke:#34d274;stroke-linejoin:miter;"/>
   </g>
   <g id="patch_24">
    <path clip-path="url(#pf91e81d177)" d="M 1456.765717 324.032281 
L 1593.227175 324.032281 
L 1593.227175 187.570823 
L 1524.996446 201.216969 
L 1565.934883 228.50926 
z
" style="fill:#f35c42;stroke:#f35c42;stroke-linejoin:miter;"/>
   </g>
   <g id="patch_25">
    <path clip-path="url(#pf91e81d177)" d="M 1333.950405 146.632386 
L 1661.457904 146.632386 
L 1661.457904 105.693948 
L 1333.950405 105.693948 
z
" style="fill:#f35c42;stroke:#f35c42;stroke-linejoin:miter;"/>
   </g>
   <g id="patch_26">
    <path clip-path="url(#pf91e81d177)" d="M 1320.304259 460.493739 
L 1320.304259 119.340094 
L 1252.07353 119.340094 
L 1252.07353 460.493739 
z
" style="fill:#f35c42;stroke:#f35c42;stroke-linejoin:miter;"/>
   </g>
   <g id="patch_27">
    <path clip-path="url(#pf91e81d177)" d="M 1388.534988 392.26301 
L 1374.888842 324.032281 
L 1429.473425 351.324573 
z
" style="fill:#f35c42;stroke:#f35c42;stroke-linejoin:miter;"/>
   </g>
   <g id="patch_28">
    <path clip-path="url(#pf91e81d177)" d="M 1312.662417 495.973719 
L 1327.9461 495.973719 
L 1339.408863 487.786031 
L 1339.408863 433.201448 
L 1332.58579 416.826073 
L 1308.022727 416.826073 
L 1301.199655 433.201448 
L 1301.199655 487.786031 
z
" style="fill:#333333;stroke:#333333;stroke-linejoin:miter;"/>
   </g>
  </g>
 </g>
 <defs>
  <clipPath id="p8179c875e0">
   <rect height="543.6" width="492.352941" x="28.942188" y="7.2"/>
  </clipPath>
  <clipPath id="peb86ba16f6">
   <rect height="543.6" width="492.352941" x="619.765717" y="7.2"/>
  </clipPath>
  <clipPath id="pf91e81d177">
   <rect height="543.6" width="492.352941" x="1210.589246" y="7.2"/>
  </clipPath>
 </defs>
</svg>
